<svg width="94" height="146" viewBox="0 0 94 146" fill="none" xmlns="http://www.w3.org/2000/svg">
<path d="M46.9998 3C70.1957 3 88.9998 21.804 88.9998 45C88.9998 68.196 70.1957 87 46.9998 87C23.8039 86.9999 4.99976 68.1959 4.99976 45C4.99976 21.8041 23.8039 3.00013 46.9998 3Z" fill="#60AE35"/>
<path d="M87.9998 0C90.7612 0 92.9998 2.23858 92.9998 5V109C92.9998 114.523 88.5226 119 82.9998 119C77.477 119 72.9998 114.523 72.9998 109V15C72.9998 6.71581 79.7156 0.000131942 87.9998 0Z" fill="#60AE35"/>
<path d="M60.7168 56.9984C67.7764 42.9496 43.3487 8.79483 44.5892 18.8112C45.8297 28.8275 30.6988 44.3958 34.6646 56.9984C38.6304 69.601 53.6571 71.0472 60.7168 56.9984Z" fill="white"/>
<path d="M27.5001 108.5C27.5003 149.5 66.4993 116.5 73.9997 118C81.5001 119.5 92.4994 118 92.4994 118V143.5C92.4994 143.5 87.9996 149 27.4999 141.5C-32.9999 134 27.4999 67.4999 27.5001 108.5Z" fill="#2192D1"/>
<path d="M93.4998 122.602L92.908 122.491C89.1232 121.785 85.8915 120.994 83.1394 120.304C80.3779 119.611 78.1232 119.028 76.2576 118.727C74.3863 118.424 72.9902 118.421 71.9207 118.821C70.8853 119.209 70.0832 120.003 69.4607 121.481L68.4998 121.288V112.561L68.9685 112.532C71.2934 112.388 73.7086 112.751 76.0652 113.269C77.245 113.528 78.418 113.827 79.5613 114.123C80.7072 114.419 81.8215 114.711 82.8982 114.961C85.0606 115.462 87.0131 115.775 88.6707 115.61C90.3022 115.448 91.625 114.827 92.5906 113.455L93.4998 112.164V122.602Z" fill="white"/>
</svg>
